<svg width="512" height="512" viewBox="0 0 512 512" fill="none" xmlns="http://www.w3.org/2000/svg">
<g clip-path="url(#clip0_2_2)">
<rect width="512" height="512" rx="60" fill="#0A0A0A"/>
<path d="M83.8214 122.816C91.5832 115.061 104.165 115.061 111.926 122.816L231.179 241.96C238.94 249.715 238.94 262.285 231.179 270.04L111.926 389.184C104.165 396.939 91.5832 396.939 83.8214 389.184C76.0595 381.429 76.0595 368.859 83.8214 361.104L189.021 256L83.8214 150.896C76.0595 143.141 76.0595 130.571 83.8214 122.816Z" fill="#00FF41"/>
<path d="M423.197 236C429.021 236 433.743 244.947 433.743 255.983C433.743 267.019 429.021 275.966 423.197 275.966H275.546C269.722 275.966 265 267.019 265 255.983C265 244.947 269.722 236 275.546 236H423.197Z" fill="#00FF41"/>
</g>
<defs>
<clipPath id="clip0_2_2">
<rect width="512" height="512" fill="white"/>
</clipPath>
</defs>
</svg>
